<svg version="1.1" class="logo_svg" xmlns="http://www.w3.org/2000/svg" xmlns:xlink="http://www.w3.org/1999/xlink" x="0px" y="0px" width="200px" height="30px" viewBox="0 0 200 30" enable-background="new 0 0 200 30" xml:space="preserve">
<g>
	<path fill="#231F20" d="M0,16.616C0,7.61,6.977,1.646,15.634,1.646c7.603,0,11.266,4.444,12.476,8.615l-7.565,2.381
		c-0.466-2.419-2.533-4.057-5.263-4.057c-4.209,0-7.133,3.587-7.133,7.486c0,2.965,2.26,5.536,5.847,5.536
		c2.025,0,4.365-1.324,5.263-3l6.159,3.974c-3.235,4.679-8.304,5.965-11.85,5.965C6.12,28.546,0,23.946,0,16.616z"></path>
	<path fill="#231F20" d="M25.783,23.479l4.679-5.616c1.794,2.34,5.457,3.978,8.965,3.978c1.483,0,2.067-0.663,2.067-1.13
		c0-2.184-12.434-2.104-12.434-9.942c0-4.524,3.742-9.082,11.149-9.082c4.251,0,8.498,1.479,11.345,4.327l-4.717,5.457
		c-2.146-2.142-5.46-3.158-7.914-3.158c-1.016,0-1.6,0.47-1.6,1.054c0,2.066,12.476,2.184,12.476,9.787
		c0,5.378-4.289,9.393-10.993,9.393C33.268,28.546,28.354,26.558,25.783,23.479z"></path>
	<path fill="#231F20" d="M49.696,23.479l4.679-5.616c1.793,2.34,5.457,3.978,8.965,3.978c1.482,0,2.066-0.663,2.066-1.13
		c0-2.184-12.434-2.104-12.434-9.942c0-4.524,3.743-9.082,11.149-9.082c4.251,0,8.498,1.479,11.345,4.327l-4.717,5.457
		c-2.146-2.142-5.46-3.158-7.914-3.158c-1.016,0-1.6,0.47-1.6,1.054c0,2.066,12.476,2.184,12.476,9.787
		c0,5.378-4.289,9.393-10.993,9.393C57.181,28.546,52.271,26.558,49.696,23.479z"></path>
</g>
<g>
	<path fill="#231F20" d="M107.95,28.079l2.184-9.942h-9.317l-2.184,9.942h-7.876l5.73-26.005h7.876l-2.025,9.203h9.317l2.025-9.203
		h7.876l-5.73,26.005H107.95z"></path>
	<path fill="#231F20" d="M120.052,28.079l5.73-26.005h19.729l-1.521,6.863h-11.853l-0.546,2.572h11.58l-1.521,6.863h-11.58
		l-0.622,2.844h11.85l-1.521,6.863H120.052z"></path>
	<path fill="#231F20" d="M157.916,28.079l-1.79-8.187h-3.159l-1.793,8.187h-7.876l5.73-26.005h12.631
		c4.72,0,8.733,3.083,8.733,7.876c0,4.6-3,8.149-6.393,9.358l2.574,8.771H157.916z M162.246,10.807c0-1.089-0.975-1.87-2.184-1.87
		h-4.679l-0.895,4.092h4.793C160.999,13.029,162.246,12.289,162.246,10.807z"></path>
	<path fill="#231F20" d="M170.84,16.616c0-8.304,6.587-14.97,15.634-14.97C194.153,1.646,200,6.48,200,13.499
		c0,8.304-6.549,15.047-15.593,15.047C176.687,28.546,170.84,23.673,170.84,16.616z M191.851,14.121
		c0-3.197-2.337-5.536-5.848-5.536c-4.133,0-7.016,3.511-7.016,7.486c0,3.197,2.34,5.536,5.848,5.536
		C188.969,21.606,191.851,18.099,191.851,14.121z"></path>
</g>
<g>
	<g>
		<path fill="#231F20" d="M78.404,27.727c-0.269-0.175,4.43-10.048,4.27-10.485c-0.165-0.431-5.143-2.014-5.39-2.777
			c-0.245-0.761,9.838-12.222,10.104-12c0.259,0.221-4.394,10.163-4.268,10.485c0.126,0.322,5.233,1.971,5.388,2.777
			C88.66,16.54,78.677,27.904,78.404,27.727z"></path>
	</g>
</g>
</svg>